<?xml version="1.0" encoding="iso-8859-1"?>
<!-- Uploaded to: SVG Repo, www.svgrepo.com, Generator: SVG Repo Mixer Tools -->
<svg version="1.1" id="Layer_1" xmlns="http://www.w3.org/2000/svg" xmlns:xlink="http://www.w3.org/1999/xlink" 
	 viewBox="0 0 508 508" xml:space="preserve">
<circle style="fill:#84DBFF;" cx="254" cy="254" r="254"/>
<path style="fill:#FFD05B;" d="M398.1,401.5H109.9c-1.9,0-3.4-1.5-3.4-3.4V109.9c0-1.9,1.5-3.4,3.4-3.4h288.2c1.9,0,3.4,1.5,3.4,3.4
	v288.2C401.5,400,400,401.5,398.1,401.5z"/>
<rect x="212.7" y="106.5" style="fill:#F9B54C;" width="82.5" height="32.4"/>
<g>
	<path style="fill:#FFFFFF;" d="M371.9,287.6h-54.1v2.5h54.1c3.1,0,5.6,2.5,5.6,5.6V358c0,3.1-2.5,5.6-5.6,5.6h-62.3
		c-2.8,0-5.1-2-5.5-4.7h-2.5c0.4,4.1,3.8,7.2,8,7.2h62.3c4.5,0,8.1-3.6,8.1-8.1v-62.3C380,291.3,376.4,287.6,371.9,287.6z"/>
	<path style="fill:#FFFFFF;" d="M341.6,299.4v-1.8c0-0.5-0.4-0.9-0.9-0.9s-0.9,0.4-0.9,0.9v1.8c-9.1,0.3-17.2,5-22,12v10.1
		c0.9-0.3,1.9-0.5,2.9-0.5c2.6,0,5,1,6.7,2.7c1.7-1.7,4.1-2.7,6.7-2.7c2.2,0,4.2,0.8,5.8,2v30c0,2.2,1.8,4,4,4s4-1.8,4-4
		c0-0.5-0.4-0.9-0.9-0.9s-0.9,0.4-0.9,0.9c0,1.2-1,2.2-2.2,2.2s-2.2-1-2.2-2.2v-30c1.6-1.3,3.6-2,5.8-2c2.6,0,5,1,6.7,2.7
		c1.7-1.7,4.1-2.7,6.7-2.7c3.3,0,6.1,1.6,7.9,4.1C367.5,311,355.9,299.9,341.6,299.4z"/>
	<path style="fill:#FFFFFF;" d="M204,355.4v2.7c0,3.1-2.5,5.6-5.6,5.6h-62.3c-3.1,0-5.6-2.5-5.6-5.6v-62.3c0-3.1,2.5-5.6,5.6-5.6
		h61.8v-2.5h-61.8c-4.5,0-8.1,3.6-8.1,8.1v62.3c0,4.5,3.6,8.1,8.1,8.1h62.3c4.5,0,8.1-3.6,8.1-8.1v-2.7H204z"/>
	<polygon style="fill:#FFFFFF;" points="154.8,300.9 146.3,315.7 151.5,315.7 151.5,352.9 158.2,352.9 158.2,315.7 163.4,315.7 	"/>
	<polygon style="fill:#FFFFFF;" points="188.2,315.7 179.7,300.9 171.2,315.7 176.3,315.7 176.3,352.9 183.1,352.9 183.1,315.7 	"/>
	<path style="fill:#FFFFFF;" d="M292.3,267.6H214c-5.6,0-10.2,4.6-10.2,10.2V356c0,5.6,4.6,10.2,10.2,10.2h78.3
		c5.6,0,10.2-4.6,10.2-10.2v-78.3C302.4,272.1,297.9,267.6,292.3,267.6z M299.3,356c0,3.9-3.1,7-7,7H214c-3.9,0-7-3.1-7-7v-78.3
		c0-3.9,3.1-7,7-7h78.3c3.9,0,7,3.1,7,7V356z"/>
	<path style="fill:#FFFFFF;" d="M271.4,295.7c0-3.5-0.4-6.8-1.1-9.9H236c-0.7,3.1-1.1,6.4-1.1,9.9c0,15.3,7.3,27.8,16.6,29.2v19.8
		H245c-0.9,0-1.7,0.8-1.7,1.7c0,0.9,0.8,1.7,1.7,1.7h16.4c0.9,0,1.7-0.8,1.7-1.7c0-0.9-0.8-1.7-1.7-1.7h-6.5v-19.8
		C264.1,323.5,271.4,310.9,271.4,295.7z"/>
</g>
<path style="fill:#324A5E;" d="M300.1,195.3H208c-6.5,0-11.7-5.3-11.7-11.7l0,0c0-6.5,5.3-11.7,11.7-11.7h92.1
	c6.5,0,11.7,5.3,11.7,11.7l0,0C311.8,190.1,306.5,195.3,300.1,195.3z"/>
<path style="fill:#FF7058;" d="M378.9,425.4L378.9,425.4c-7.9,7.9-21,7.3-28.1-1.4l-56.2-69.1l13.7-13.7l69.1,56.2
	C386.1,404.4,386.8,417.5,378.9,425.4z"/>
<path style="fill:#324A5E;" d="M199.2,245.7c-30.5,30.5-30.5,80,0,110.6c30.5,30.5,80,30.5,110.6,0c30.5-30.5,30.5-80,0-110.5
	C279.3,215.2,229.8,215.2,199.2,245.7z M294.5,340.9c-22.1,22.1-57.8,22.1-79.9,0s-22.1-57.8,0-79.9c22-22,57.8-22,79.9,0
	C316.5,283.1,316.5,318.9,294.5,340.9z"/>
</svg>